<?xml version="1.0" encoding="UTF-8"?>
<svg id="Livello_1" xmlns="http://www.w3.org/2000/svg" version="1.1" viewBox="0 0 1080 1080">
  <!-- Generator: Adobe Illustrator 29.5.0, SVG Export Plug-In . SVG Version: 2.1.0 Build 137)  -->
  <path d="M540,236.8c98.7,0,110.4.4,149.4,2.2,36.1,1.6,55.6,7.7,68.7,12.7,17.3,6.7,29.6,14.7,42.5,27.7,12.9,12.9,21,25.3,27.7,42.5,5.1,13,11.1,32.6,12.7,68.7,1.8,39,2.2,50.7,2.2,149.4s-.4,110.4-2.2,149.4c-1.6,36.1-7.7,55.6-12.7,68.7-6.7,17.3-14.7,29.6-27.7,42.5-12.9,12.9-25.3,21-42.5,27.7-13,5.1-32.6,11.1-68.7,12.7-39,1.8-50.7,2.2-149.4,2.2s-110.4-.4-149.4-2.2c-36.1-1.6-55.6-7.7-68.7-12.7-17.3-6.7-29.6-14.7-42.5-27.7-12.9-12.9-21-25.3-27.7-42.5-5.1-13-11.1-32.6-12.7-68.7-1.8-39-2.2-50.7-2.2-149.4s.4-110.4,2.2-149.4c1.6-36.1,7.7-55.6,12.7-68.7,6.7-17.3,14.7-29.6,27.7-42.5,12.9-12.9,25.3-21,42.5-27.7,13-5.1,32.6-11.1,68.7-12.7,39-1.8,50.7-2.2,149.4-2.2M540,170.2c-100.4,0-113,.4-152.5,2.2-39.4,1.8-66.2,8-89.8,17.2-24.3,9.4-44.9,22.1-65.5,42.7-20.6,20.6-33.2,41.2-42.7,65.5-9.1,23.5-15.4,50.4-17.2,89.8-1.8,39.4-2.2,52-2.2,152.5s.4,113,2.2,152.5c1.8,39.4,8,66.2,17.2,89.8,9.4,24.3,22.1,44.9,42.7,65.5,20.6,20.6,41.2,33.2,65.5,42.7,23.5,9.1,50.4,15.4,89.8,17.2,39.4,1.8,52,2.2,152.5,2.2s113-.4,152.5-2.2c39.4-1.8,66.2-8,89.8-17.2,24.3-9.4,44.9-22.1,65.5-42.7,20.6-20.6,33.2-41.2,42.7-65.5,9.1-23.5,15.4-50.4,17.2-89.8,1.8-39.4,2.2-52,2.2-152.5s-.4-113-2.2-152.5c-1.8-39.4-8-66.2-17.2-89.8-9.4-24.3-22.1-44.9-42.7-65.5-20.6-20.6-41.2-33.2-65.5-42.7-23.5-9.1-50.4-15.4-89.8-17.2-39.4-1.8-52-2.2-152.5-2.2h0Z"/>
  <path d="M540,350.1c-104.9,0-189.9,85-189.9,189.9s85,189.9,189.9,189.9,189.9-85,189.9-189.9-85-189.9-189.9-189.9ZM540,663.3c-68.1,0-123.3-55.2-123.3-123.3s55.2-123.3,123.3-123.3,123.3,55.2,123.3,123.3-55.2,123.3-123.3,123.3Z"/>
  <circle cx="737.4" cy="342.6" r="44.4"/>
</svg>