<?xml version="1.0" encoding="UTF-8"?>
<svg id="Livello_1" xmlns="http://www.w3.org/2000/svg" version="1.1" viewBox="0 0 1080 1080">
  <!-- Generator: Adobe Illustrator 29.5.0, SVG Export Plug-In . SVG Version: 2.1.0 Build 137)  -->
  <defs>
    <style>
      .st0 {
        fill: #fff;
      }
    </style>
  </defs>
  <g>
    <path d="M621.3,231.3s-.2.4-.4.8c-.2-.4-.5-.8-.5-.8-35.9,18.5-71.7,37.4-107.3,56.5-106.9,57.2-213.1,115.5-318.8,174.9,0,0-21.4,12.1-21.4,12.1,42.7,10.4,88.8,21.2,131.7,31.1,113,25.7,351.8,80.8,467.3,107.6l4.5,1,2.1-4.1,122.3-240.9s1.8-3.5,1.8-3.5c-70.9-34.2-210.3-100.7-281.2-134.8Z"/>
    <g>
      <polygon class="st0" points="650.7 115.2 198.5 289.9 746.4 509 904.4 289.9 650.7 115.2"/>
      <path d="M650.8,114.2c-114.1,39-228.3,80.4-341.7,122.4-46.5,17.3-93.7,35.1-140.2,53,41.6,16.9,86.5,34.7,128.4,51.1,110.6,42.9,338.8,132,451.5,176.3l2.9-4.2,156-220.5s2.5-3.6,2.5-3.6c-65.5-44.3-194-130.5-259.5-174.6ZM744.2,501c-110.5-45-334.3-136.6-439-179.8-24.7-10.1-51.5-20.9-77.2-31.2,28.7-11.3,57.3-22.7,86-34.2,112.7-45.3,224.6-91.4,336.6-139.6,61.5,43.3,183.9,129.8,247.8,174.6l-154.2,210.1Z"/>
    </g>
  </g>
  <g>
    <g>
      <path d="M228.4,787.8v21.9h-72.7v-145h23.8v123.2h48.9Z"/>
      <path d="M381.4,779.7h-59.9l-12.6,30h-26.5l67.5-147h3.3l67.3,147h-26.5l-12.6-30ZM351.4,708.4l-21.5,50.9h42.7l-21.3-50.9Z"/>
      <path d="M524.6,767.7v42h-24v-42l-53-103.1h25.9l39.1,79.3,39.4-79.3h25.5l-53,103.1Z"/>
      <path d="M735.8,787.8v21.9h-94.2v-145h92.2v21.9h-69.6v35.2h66.1v21.9h-66.1v44.3h71.6Z"/>
      <path d="M896.9,809.7l-28.2-46.2c-4.8.6-9.9,1-15.3,1-9.3,0-16.2-.8-22.2-1.9v47.2h-23.8v-145h54.1c38.3,0,59,17.8,59,47.6s-10.6,37.5-29.2,45.4l32.3,52h-26.7ZM895.5,712.6c0-16.1-8.7-26.5-36-26.5h-28.4v55.7c5.8,1.2,13,1.7,22,1.7,29.8,0,42.3-11,42.3-30.9Z"/>
    </g>
    <g>
      <path d="M205.2,932.6l-24.2-39.5h-22.8v39.5h-2.6v-90.5h22.6c9.9,0,17.3,2.3,22.2,6.8,4.8,4.5,7.3,10.8,7.3,18.6s-2.1,13.1-6.2,17.5c-4.1,4.4-10,7-17.6,7.8l24.4,39.7h-3.2ZM178.6,890.7c8.8,0,15.5-2.1,19.9-6.3,4.4-4.2,6.6-9.8,6.6-16.8,0-15.3-8.9-22.9-26.8-22.9h-20.1v46h20.3Z"/>
      <path d="M274.4,925.3c5.3-3.9,8.5-9.3,9.6-16.2h2.6c-1.2,7.3-4.6,13.2-10.2,17.7-5.6,4.5-12.8,6.8-21.7,6.8s-12.2-1.4-17.2-4.2c-5.1-2.8-9-6.9-11.9-12.3-2.9-5.4-4.3-11.7-4.3-19s1.4-13.6,4.3-19c2.9-5.4,6.8-9.5,11.9-12.3,5.1-2.8,10.8-4.2,17.2-4.2s12.6,1.4,17.4,4.3c4.8,2.9,8.4,6.6,10.9,11.1,2.4,4.5,3.7,9.3,3.7,14.4s0,5.4-.1,6.9h-62.6c0,7.1,1.6,13.1,4.4,17.9,2.9,4.8,6.6,8.4,11.3,10.7,4.6,2.4,9.7,3.5,15.2,3.5,7.8,0,14.4-2,19.7-5.9ZM239.5,868.1c-4.6,2.4-8.4,5.9-11.3,10.7-2.9,4.8-4.4,10.8-4.4,17.9h60.4c.4-7.1-.7-13.1-3.4-17.9-2.7-4.8-6.4-8.4-11.1-10.7-4.7-2.4-9.7-3.5-15.1-3.5s-10.5,1.2-15.2,3.5Z"/>
      <path d="M310.8,865.8v48.6c0,4.2.5,7.4,1.4,9.6.9,2.2,2.4,3.8,4.5,4.7,2.1.9,4.9,1.4,8.6,1.4h7.3v2.6h-7.6c-6,0-10.3-1.4-12.9-4.1-2.6-2.7-3.9-7.5-3.9-14.1v-48.6h-11.3v-2.6h11.3v-17.7h2.6v17.7h21.9v2.6h-21.9Z"/>
      <path d="M349.7,878.9c2.8-5.4,6.8-9.5,12-12.3,5.1-2.9,11-4.3,17.6-4.3s14.7,2.1,20.3,6.2c5.5,4.2,9.2,9.5,11.1,15.9v-21.2h2.4v69.4h-2.4v-21.2c-1.9,6.4-5.6,11.7-11.1,15.9-5.5,4.2-12.3,6.2-20.3,6.2s-12.5-1.4-17.6-4.3c-5.1-2.9-9.1-7-12-12.3-2.8-5.4-4.2-11.7-4.2-19s1.4-13.6,4.2-19ZM406.7,880.5c-2.7-5-6.4-8.9-11.2-11.7-4.8-2.8-10.1-4.2-16.1-4.2s-11.9,1.3-16.5,4c-4.7,2.7-8.3,6.5-10.9,11.5s-3.9,11-3.9,17.8,1.3,12.8,3.9,17.8c2.6,5,6.2,8.9,10.9,11.5,4.7,2.7,10.2,4,16.5,4s11.4-1.4,16.1-4.2c4.8-2.8,8.5-6.7,11.2-11.7,2.7-5,4.1-10.8,4.1-17.4s-1.4-12.4-4.1-17.4Z"/>
      <path d="M433.9,844.5c-.6-.6-1-1.5-1-2.5s.3-1.9,1-2.5,1.4-1,2.4-1,1.7.3,2.4,1,1,1.5,1,2.5-.3,1.9-1,2.5-1.4,1-2.4,1-1.7-.3-2.4-1ZM437.6,863.2v69.4h-2.6v-69.4h2.6Z"/>
      <path d="M462,837.5v95.2h-2.6v-95.2h2.6Z"/>
      <path d="M580.6,853.9c8.1,7.9,12.2,19,12.2,33.4s-4.1,25.6-12.2,33.4c-8.1,7.9-20,11.8-35.6,11.8h-23.8v-90.5h23.8c15.6,0,27.5,3.9,35.6,11.8ZM578.8,919c7.6-7.5,11.4-18.1,11.4-31.6s-3.8-24.1-11.4-31.6c-7.6-7.5-18.9-11.3-33.8-11.3h-21.2v85.9h21.2c14.9,0,26.2-3.8,33.8-11.3Z"/>
      <path d="M661.4,925.3c5.3-3.9,8.5-9.3,9.6-16.2h2.6c-1.2,7.3-4.6,13.2-10.2,17.7-5.6,4.5-12.8,6.8-21.7,6.8s-12.2-1.4-17.2-4.2c-5.1-2.8-9-6.9-11.9-12.3-2.9-5.4-4.3-11.7-4.3-19s1.4-13.6,4.3-19c2.9-5.4,6.8-9.5,11.9-12.3,5.1-2.8,10.8-4.2,17.2-4.2s12.6,1.4,17.4,4.3c4.8,2.9,8.4,6.6,10.9,11.1,2.4,4.5,3.7,9.3,3.7,14.4s0,5.4-.1,6.9h-62.6c0,7.1,1.6,13.1,4.4,17.9,2.9,4.8,6.6,8.4,11.3,10.7,4.6,2.4,9.7,3.5,15.2,3.5,7.8,0,14.4-2,19.7-5.9ZM626.5,868.1c-4.6,2.4-8.4,5.9-11.3,10.7-2.9,4.8-4.4,10.8-4.4,17.9h60.4c.4-7.1-.7-13.1-3.4-17.9-2.7-4.8-6.4-8.4-11.1-10.7-4.7-2.4-9.7-3.5-15.1-3.5s-10.5,1.2-15.2,3.5Z"/>
      <path d="M696.2,928.9c-4.7-3.1-7.4-7.8-8.2-14h2.6c.5,5.1,2.8,9.2,6.9,12,4.1,2.9,9.8,4.3,17.3,4.3s7.1-.7,10-2.2c2.9-1.5,5.1-3.4,6.6-5.9,1.5-2.4,2.3-5.1,2.3-7.9s-.9-5.6-2.6-7.5c-1.8-1.9-3.9-3.4-6.6-4.4-2.6-1-6.2-2.1-10.7-3.3-5.1-1.3-9.2-2.6-12.3-3.9-3.1-1.3-5.8-3.3-8-5.9-2.2-2.7-3.3-6.2-3.3-10.5s.9-6,2.8-8.6c1.9-2.7,4.5-4.8,7.8-6.4,3.3-1.6,7-2.4,11.1-2.4,7,0,12.7,1.8,17,5.3,4.3,3.5,6.6,8.4,6.9,14.7h-2.6c-.3-5.1-2.2-9.4-5.9-12.7-3.6-3.3-8.8-5-15.5-5s-6.9.7-9.8,2.1c-2.9,1.4-5.2,3.2-6.9,5.5-1.7,2.3-2.5,4.8-2.5,7.5,0,3.8,1,6.8,3,9.1,2,2.3,4.4,4,7.3,5.1,2.9,1.1,6.7,2.3,11.5,3.6,4.9,1.4,8.7,2.6,11.5,3.7,2.8,1.1,5.2,2.8,7.1,5.1,2,2.3,3,5.3,3,8.9s-.9,6.5-2.8,9.3c-1.9,2.8-4.5,5-7.7,6.6-3.3,1.6-6.9,2.4-10.9,2.4-7.6,0-13.8-1.5-18.5-4.6Z"/>
      <path d="M753.3,844.5c-.6-.6-1-1.5-1-2.5s.3-1.9,1-2.5c.6-.6,1.4-1,2.4-1s1.7.3,2.4,1c.6.6,1,1.5,1,2.5s-.3,1.9-1,2.5c-.6.6-1.4,1-2.4,1s-1.7-.3-2.4-1ZM756.9,863.2v69.4h-2.6v-69.4h2.6Z"/>
      <path d="M829.6,868.5c5.5,4.1,9.2,9.3,11.1,15.7v-21h2.4v72c0,6.4-1.4,12-4.2,16.8-2.8,4.8-6.6,8.4-11.3,10.9-4.7,2.5-9.8,3.7-15.2,3.7-8.4,0-15.4-2-20.9-6.1-5.5-4.1-9.3-9.6-11.4-16.5h2.6c2,6.3,5.5,11.2,10.5,14.9,5,3.6,11.4,5.5,19.2,5.5s10.1-1.2,14.4-3.6c4.3-2.4,7.7-5.8,10.2-10.2,2.5-4.4,3.7-9.5,3.7-15.3v-23.7c-1.9,6.4-5.6,11.7-11.1,15.8-5.5,4.1-12.3,6.2-20.3,6.2s-12.5-1.4-17.6-4.3c-5.1-2.9-9.1-7-12-12.3-2.8-5.4-4.2-11.7-4.2-19s1.4-13.6,4.2-19c2.8-5.4,6.8-9.5,12-12.3,5.1-2.9,11-4.3,17.6-4.3s14.7,2.1,20.3,6.2ZM836.7,880.5c-2.7-5-6.4-8.9-11.2-11.7-4.8-2.8-10.1-4.2-16.1-4.2s-11.9,1.3-16.5,4c-4.7,2.7-8.3,6.5-10.9,11.5-2.6,5-3.9,11-3.9,17.8s1.3,12.8,3.9,17.8c2.6,5,6.2,8.9,10.9,11.5,4.7,2.7,10.2,4,16.5,4s11.4-1.4,16.1-4.2c4.8-2.8,8.5-6.7,11.2-11.7,2.7-5,4.1-10.8,4.1-17.4s-1.4-12.4-4.1-17.4Z"/>
      <path d="M915,869.2c5.2,5.1,7.8,12.7,7.8,22.9v40.5h-2.4v-40.8c0-9.1-2.3-16-6.8-20.8-4.5-4.8-10.8-7.1-18.6-7.1s-14.8,2.7-19.8,8c-5,5.4-7.5,13.3-7.5,23.7v36.9h-2.6v-69.4h2.6v18.3c1.6-6.4,4.9-11.3,9.8-14.7,4.9-3.4,10.7-5.1,17.5-5.1s14.8,2.5,20.1,7.6Z"/>
    </g>
  </g>
</svg>