<?xml version="1.0" encoding="UTF-8"?>
<svg id="Livello_1" data-name="Livello 1" xmlns="http://www.w3.org/2000/svg" viewBox="0 0 1080 329.11">
  <defs>
    <style>
      .cls-1 {
        fill: #fff;
      }
    </style>
  </defs>
  <g>
    <path d="M473.08,143.44v17.58h-58.49V44.35h19.13v99.09h39.36Z"/>
    <path d="M596.13,136.91h-48.22l-10.11,24.11h-21.31l54.29-118.22h2.64l54.13,118.22h-21.31l-10.11-24.11ZM572.01,79.51l-17.27,40.91h34.38l-17.11-40.91Z"/>
    <path d="M711.4,127.26v33.76h-19.29v-33.76l-42.62-82.91h20.84l31.42,63.78,31.73-63.78h20.53l-42.62,82.91Z"/>
    <path d="M881.26,143.44v17.58h-75.76V44.35h74.2v17.58h-56v28.31h53.2v17.58h-53.2v35.62h57.56Z"/>
    <path d="M1010.84,161.02l-22.71-37.18c-3.89.47-7.93.78-12.29.78-7.47,0-13.07-.62-17.89-1.56v37.96h-19.13V44.35h43.56c30.8,0,47.45,14.31,47.45,38.27,0,17.89-8.56,30.18-23.49,36.56l25.98,41.85h-21.47ZM1009.75,82.93c0-12.91-7-21.31-28.93-21.31h-22.87v44.8c4.67.93,10.42,1.4,17.73,1.4,23.96,0,34.07-8.87,34.07-24.89Z"/>
  </g>
  <g>
    <path d="M454.42,259.91l-19.45-31.76h-18.31v31.76h-2.07v-72.83h18.21c8,0,13.95,1.83,17.85,5.48,3.9,3.66,5.85,8.66,5.85,15,0,5.86-1.66,10.55-4.97,14.07-3.31,3.52-8.04,5.62-14.17,6.31l19.66,31.97h-2.59ZM433,226.19c7.1,0,12.43-1.69,15.98-5.07,3.55-3.38,5.33-7.9,5.33-13.55,0-12.28-7.17-18.42-21.52-18.42h-16.14v37.04h16.35Z"/>
    <path d="M510.08,254.02c4.28-3.17,6.86-7.52,7.76-13.04h2.07c-.97,5.86-3.71,10.6-8.22,14.23-4.52,3.62-10.33,5.43-17.43,5.43-5.17,0-9.79-1.14-13.86-3.41-4.07-2.28-7.26-5.59-9.57-9.93-2.31-4.35-3.47-9.45-3.47-15.31s1.15-10.97,3.47-15.31c2.31-4.34,5.5-7.66,9.57-9.93,4.07-2.28,8.69-3.41,13.86-3.41,5.45,0,10.1,1.16,13.97,3.47,3.86,2.31,6.78,5.29,8.74,8.95,1.97,3.66,2.95,7.52,2.95,11.59,0,2.48-.04,4.34-.1,5.59h-50.38c.07,5.73,1.26,10.52,3.57,14.38,2.31,3.86,5.33,6.74,9.05,8.64,3.72,1.9,7.79,2.84,12.21,2.84,6.28,0,11.55-1.59,15.83-4.76ZM482.04,208.03c-3.72,1.9-6.74,4.78-9.05,8.64-2.31,3.86-3.5,8.66-3.57,14.38h48.63c.34-5.72-.57-10.52-2.74-14.38-2.17-3.86-5.14-6.74-8.9-8.64-3.76-1.9-7.81-2.85-12.16-2.85s-8.48.95-12.21,2.85Z"/>
    <path d="M539.35,206.12v39.11c0,3.38.38,5.97,1.14,7.76.76,1.79,1.97,3.05,3.62,3.78,1.66.72,3.97,1.09,6.93,1.09h5.9v2.07h-6.1c-4.83,0-8.29-1.1-10.4-3.31-2.1-2.21-3.16-6-3.16-11.38v-39.11h-9.1v-2.07h9.1v-14.28h2.07v14.28h17.59v2.07h-17.59Z"/>
    <path d="M570.7,216.72c2.28-4.31,5.48-7.62,9.62-9.93,4.14-2.31,8.86-3.47,14.17-3.47,6.41,0,11.85,1.67,16.29,5.02,4.45,3.35,7.43,7.6,8.95,12.78v-17.07h1.97v55.87h-1.97v-17.07c-1.52,5.17-4.5,9.43-8.95,12.78-4.45,3.35-9.88,5.02-16.29,5.02-5.31,0-10.04-1.15-14.17-3.47-4.14-2.31-7.35-5.62-9.62-9.93-2.28-4.31-3.41-9.4-3.41-15.26s1.14-10.95,3.41-15.26ZM616.48,217.96c-2.17-4.04-5.17-7.17-9-9.42-3.83-2.24-8.16-3.36-12.98-3.36-5.1,0-9.54,1.07-13.29,3.21-3.76,2.14-6.67,5.22-8.74,9.26-2.07,4.03-3.1,8.81-3.1,14.33s1.03,10.29,3.1,14.33c2.07,4.03,4.98,7.12,8.74,9.26,3.76,2.14,8.19,3.21,13.29,3.21,4.83,0,9.16-1.12,12.98-3.36,3.83-2.24,6.83-5.38,9-9.41,2.17-4.03,3.26-8.71,3.26-14.02s-1.09-9.98-3.26-14.02Z"/>
    <path d="M638.41,189c-.52-.52-.78-1.19-.78-2.02s.26-1.5.78-2.02,1.15-.78,1.91-.78,1.4.26,1.91.78.78,1.19.78,2.02-.26,1.5-.78,2.02-1.16.78-1.91.78-1.4-.26-1.91-.78ZM641.36,204.05v55.87h-2.07v-55.87h2.07Z"/>
    <path d="M661.02,183.36v76.56h-2.07v-76.56h2.07Z"/>
    <path d="M756.4,196.6c6.55,6.35,9.83,15.31,9.83,26.9s-3.28,20.55-9.83,26.9c-6.55,6.35-16.11,9.52-28.66,9.52h-19.14v-72.83h19.14c12.55,0,22.1,3.17,28.66,9.52ZM754.95,248.95c6.14-6.07,9.21-14.55,9.21-25.45s-3.07-19.38-9.21-25.45c-6.14-6.07-15.21-9.1-27.21-9.1h-17.07v69.11h17.07c12,0,21.07-3.03,27.21-9.1Z"/>
    <path d="M821.37,254.02c4.28-3.17,6.86-7.52,7.76-13.04h2.07c-.97,5.86-3.71,10.6-8.22,14.23-4.52,3.62-10.33,5.43-17.43,5.43-5.17,0-9.79-1.14-13.86-3.41-4.07-2.28-7.26-5.59-9.57-9.93-2.31-4.35-3.47-9.45-3.47-15.31s1.15-10.97,3.47-15.31c2.31-4.34,5.5-7.66,9.57-9.93,4.07-2.28,8.69-3.41,13.86-3.41,5.45,0,10.1,1.16,13.97,3.47,3.86,2.31,6.78,5.29,8.74,8.95,1.97,3.66,2.95,7.52,2.95,11.59,0,2.48-.04,4.34-.1,5.59h-50.38c.07,5.73,1.26,10.52,3.57,14.38,2.31,3.86,5.33,6.74,9.05,8.64,3.72,1.9,7.79,2.84,12.21,2.84,6.28,0,11.55-1.59,15.83-4.76ZM793.34,208.03c-3.72,1.9-6.74,4.78-9.05,8.64-2.31,3.86-3.5,8.66-3.57,14.38h48.62c.34-5.72-.57-10.52-2.74-14.38-2.17-3.86-5.14-6.74-8.9-8.64-3.76-1.9-7.81-2.85-12.16-2.85s-8.48.95-12.21,2.85Z"/>
    <path d="M849.36,256.91c-3.76-2.48-5.95-6.24-6.57-11.28h2.07c.41,4.14,2.26,7.36,5.53,9.67,3.28,2.31,7.91,3.47,13.92,3.47,3.03,0,5.71-.58,8.02-1.76,2.31-1.17,4.09-2.74,5.33-4.71,1.24-1.97,1.86-4.09,1.86-6.36,0-2.48-.71-4.5-2.12-6.05-1.41-1.55-3.17-2.74-5.28-3.57-2.1-.83-4.98-1.72-8.64-2.69-4.07-1.03-7.36-2.07-9.88-3.1-2.52-1.03-4.66-2.62-6.41-4.76-1.76-2.14-2.64-4.97-2.64-8.48,0-2.48.76-4.79,2.28-6.93,1.52-2.14,3.6-3.84,6.26-5.12,2.65-1.28,5.64-1.91,8.95-1.91,5.65,0,10.21,1.41,13.66,4.24,3.45,2.83,5.31,6.76,5.59,11.79h-2.07c-.21-4.14-1.78-7.53-4.71-10.19-2.93-2.65-7.09-3.98-12.47-3.98-2.9,0-5.52.55-7.86,1.66-2.35,1.1-4.19,2.59-5.54,4.45-1.34,1.86-2.02,3.86-2.02,6,0,3.04.79,5.48,2.38,7.35,1.59,1.86,3.53,3.24,5.85,4.14,2.31.9,5.4,1.86,9.26,2.9,3.93,1.1,7.02,2.1,9.26,3,2.24.9,4.15,2.26,5.74,4.09,1.59,1.83,2.38,4.23,2.38,7.19,0,2.76-.76,5.26-2.28,7.5-1.52,2.24-3.59,4-6.21,5.28-2.62,1.28-5.55,1.91-8.79,1.91-6.14,0-11.09-1.24-14.85-3.72Z"/>
    <path d="M895.29,189c-.52-.52-.78-1.19-.78-2.02s.26-1.5.78-2.02c.52-.52,1.15-.78,1.91-.78s1.4.26,1.91.78c.52.52.78,1.19.78,2.02s-.26,1.5-.78,2.02c-.52.52-1.16.78-1.91.78s-1.4-.26-1.91-.78ZM898.24,204.05v55.87h-2.07v-55.87h2.07Z"/>
    <path d="M956.74,208.29c4.45,3.31,7.43,7.52,8.95,12.62v-16.86h1.97v57.94c0,5.17-1.14,9.67-3.41,13.5-2.28,3.83-5.29,6.74-9.05,8.74-3.76,2-7.85,3-12.26,3-6.76,0-12.36-1.64-16.81-4.91-4.45-3.28-7.5-7.71-9.16-13.29h2.07c1.59,5.03,4.4,9.02,8.43,11.95,4.04,2.93,9.19,4.4,15.47,4.4,4.28,0,8.14-.97,11.59-2.9,3.45-1.93,6.17-4.66,8.17-8.17,2-3.52,3-7.62,3-12.31v-19.04c-1.52,5.17-4.5,9.42-8.95,12.73-4.45,3.31-9.88,4.97-16.29,4.97-5.31,0-10.04-1.15-14.17-3.47-4.14-2.31-7.35-5.62-9.62-9.93-2.28-4.31-3.41-9.4-3.41-15.26s1.14-10.95,3.41-15.26c2.28-4.31,5.48-7.62,9.62-9.93,4.14-2.31,8.86-3.47,14.17-3.47,6.41,0,11.85,1.66,16.29,4.97ZM962.43,217.96c-2.17-4.04-5.17-7.17-9-9.42-3.83-2.24-8.16-3.36-12.98-3.36-5.1,0-9.54,1.07-13.29,3.21-3.76,2.14-6.67,5.22-8.74,9.26-2.07,4.03-3.1,8.81-3.1,14.33s1.03,10.29,3.1,14.33c2.07,4.03,4.98,7.12,8.74,9.26,3.76,2.14,8.19,3.21,13.29,3.21,4.83,0,9.16-1.12,12.98-3.36,3.83-2.24,6.83-5.38,9-9.41,2.17-4.03,3.26-8.71,3.26-14.02s-1.09-9.98-3.26-14.02Z"/>
    <path d="M1025.38,208.91c4.21,4.07,6.31,10.21,6.31,18.42v32.59h-1.97v-32.8c0-7.31-1.83-12.88-5.48-16.71-3.66-3.83-8.66-5.74-15-5.74s-11.93,2.16-15.93,6.47c-4,4.31-6,10.67-6,19.09v29.69h-2.07v-55.87h2.07v14.69c1.31-5.17,3.93-9.12,7.86-11.85,3.93-2.72,8.62-4.09,14.07-4.09,6.55,0,11.93,2.04,16.14,6.1Z"/>
  </g>
  <g>
    <path d="M246.44,93.37s-.09.18-.18.37c-.1-.18-.2-.36-.2-.36-15.79,8.13-31.48,16.44-47.15,24.8-46.96,25.12-93.64,50.75-140.06,76.85,0,0-9.41,5.31-9.41,5.31,18.77,4.56,39,9.31,57.85,13.67,49.65,11.31,154.6,35.5,205.32,47.28l1.99.46.91-1.79,53.73-105.84s.78-1.53.78-1.53c-31.16-15.01-92.4-44.27-123.58-59.22Z"/>
    <g>
      <polygon class="cls-1" points="259.37 42.34 60.68 119.1 301.45 215.39 370.84 119.1 259.37 42.34"/>
      <path d="M259.42,41.88c-50.14,17.15-100.31,35.31-150.14,53.8-20.45,7.6-41.18,15.44-61.59,23.3,18.28,7.42,38.02,15.25,56.42,22.45,48.61,18.83,148.84,58.02,198.39,77.47l1.29-1.83,68.55-96.9s1.11-1.57,1.11-1.57c-28.79-19.45-85.23-57.33-114.04-76.73ZM300.45,211.86c-48.55-19.78-146.91-60.01-192.91-79-10.83-4.44-22.61-9.2-33.9-13.72,12.61-4.95,25.19-9.97,37.79-15.01,49.53-19.91,98.7-40.17,147.88-61.34,27.04,19.05,80.83,57.03,108.9,76.73l-67.76,92.33Z"/>
    </g>
  </g>
</svg>