<?xml version="1.0" encoding="UTF-8"?>
<svg id="Livello_1" xmlns="http://www.w3.org/2000/svg" version="1.1" viewBox="0 0 1080 1080">
  <!-- Generator: Adobe Illustrator 29.5.1, SVG Export Plug-In . SVG Version: 2.1.0 Build 141)  -->
  <path d="M189.9,91.5v897h700.1V310.3h-196.9c-11.5,0-21.9-10.4-21.9-21.9V91.5H189.9ZM715,113.4v153.2h153.2l-153.2-153.2ZM310.3,441.5h459.5c12.1,0,21.9,9.8,21.9,21.9s-9.8,21.9-21.9,21.9h-459.5c-12.1,0-21.9-9.8-21.9-21.9s9.8-21.9,21.9-21.9ZM310.3,616.6h459.5c12.1,0,21.9,9.8,21.9,21.9s-9.8,21.9-21.9,21.9h-459.5c-12.1,0-21.9-9.8-21.9-21.9s9.8-21.9,21.9-21.9ZM310.3,791.6h459.5c12.1,0,21.9,9.8,21.9,21.9s-9.8,21.9-21.9,21.9h-459.5c-12.1,0-21.9-9.8-21.9-21.9s9.8-21.9,21.9-21.9Z"/>
</svg>