<?xml version="1.0" encoding="UTF-8"?>
<svg id="Livello_1" data-name="Livello 1" xmlns="http://www.w3.org/2000/svg" viewBox="0 0 1080 1080">
  <path d="M860.01,412.16c0-176.96-143.44-320.39-320.39-320.39S219.22,235.21,219.22,412.16c0,64.62,19.22,124.8,52.07,175.15h-.56l240.16,383.84h0c5.25,10.53,16.2,17.79,28.72,17.79s23.46-7.26,28.72-17.79h0l240.16-383.84h-.56c32.97-50.35,52.08-110.53,52.08-175.15h0M539.62,266.08c80.68,0,146.12,65.4,146.12,146.09s-65.43,146.09-146.12,146.09-146.06-65.4-146.06-146.09,65.38-146.09,146.06-146.09h0M539.62,266.08"/>
</svg>